<svg height='300px' width='300px'  fill="#000000" xmlns="http://www.w3.org/2000/svg" xmlns:xlink="http://www.w3.org/1999/xlink" version="1.1" x="0px" y="0px" viewBox="0 0 100 100" enable-background="new 0 0 100 100" xml:space="preserve"><g><path d="M15.657,5.251v6.718c0,3.67,2.975,6.645,6.645,6.645h1.534l0.214,1.041l5.047-1.041h10.721l-16.239,3.35l0.47,2.287   l27.325-5.638h10.721L23.58,26.561l0.47,2.287l49.603-10.234h4.045c3.67,0,6.645-2.975,6.645-6.645V5.251H15.657z"></path><rect x="23.264" y="25.731" transform="matrix(0.9794 -0.2021 0.2021 0.9794 -4.404 10.6579)" width="53.47" height="2.335"></rect><rect x="23.264" y="30.328" transform="matrix(-0.9794 0.2021 -0.2021 -0.9794 105.3306 52.238)" width="53.47" height="2.335"></rect><path d="M23.58,63.332l0.47,2.287l42.839-8.839c0.342-0.849,0.691-1.714,1.051-2.601L23.58,63.332z"></path><path d="M76.417,54.815l-0.47-2.287l-5.706,1.177c-0.439,0.902-0.871,1.786-1.294,2.651L76.417,54.815z"></path><path d="M76.417,59.411l-0.47-2.287l-8.209,1.694c-0.455,0.921-0.896,1.809-1.321,2.657L76.417,59.411z"></path><path d="M23.58,67.928l0.47,2.287l40.854-8.429c0.323-0.83,0.663-1.694,1.022-2.595L23.58,67.928z"></path><path d="M76.417,64.008l-0.47-2.287l-10.773,2.223c-0.439,0.876-0.891,1.775-1.336,2.66L76.417,64.008z"></path><path d="M23.58,72.525l0.47,2.287l38.895-8.025c0.335-0.856,0.678-1.731,1.016-2.594L23.58,72.525z"></path><path d="M76.417,68.604l-0.47-2.287l-13.35,2.754c-0.499,0.992-0.96,1.907-1.34,2.661L76.417,68.604z"></path><g><path d="M77.698,81.637h-1.436l-0.315-1.531l-7.421,1.531H57.805l18.612-3.84l-0.47-2.287l-29.698,6.127H35.528l40.89-8.436    l-0.47-2.287L23.971,81.637h-1.669c-3.67,0-6.645,2.975-6.645,6.645V95h68.687v-6.718C84.343,84.612,81.368,81.637,77.698,81.637z    "></path><path d="M60.992,71.787c0.287-0.735,0.631-1.618,1.013-2.593L23.58,77.121l0.47,2.287L60.992,71.787z"></path></g><g><path d="M82.58,23.399c-0.07,0-0.151,0.025-0.232,0.052c0.109-0.036,0.217-0.07,0.299-0.042    C82.626,23.402,82.604,23.399,82.58,23.399z"></path><path d="M75.947,29.546L23.58,40.35l0.47,2.287l51.772-10.682c0.144-0.303,0.286-0.606,0.433-0.908L75.947,29.546z"></path><path d="M73.907,36.282l0.28-0.694c0.158-0.395,0.319-0.79,0.486-1.183L23.58,44.947l0.47,2.287l49.558-10.225    c0-0.001,0-0.001,0.001-0.002L73.907,36.282z"></path><path d="M71.882,41.308l0.54-1.356l0.211-0.53L23.58,49.543l0.47,2.287l47.55-9.811c0.039-0.099,0.079-0.198,0.118-0.297    L71.882,41.308z"></path><path d="M75.374,45.837l1.043-0.215l-0.274-1.334l-0.161,0.322C75.779,45.017,75.576,45.425,75.374,45.837z"></path><polygon points="70.639,44.43 23.58,54.139 24.051,56.427 69.584,47.032 69.878,46.308   "></polygon><polygon points="72.883,50.948 76.417,50.219 75.947,47.931 74.173,48.297 73.778,49.107   "></polygon><polygon points="68.42,49.895 68.603,49.447 23.58,58.736 24.051,61.023 67.544,52.05 67.838,51.325   "></polygon><path d="M82.95,23.856c-0.007-0.032-0.014-0.062-0.022-0.091c-0.049-0.169-0.125-0.285-0.228-0.34    c-0.016-0.009-0.035-0.011-0.052-0.017c-0.083-0.027-0.19,0.006-0.299,0.042c-0.068,0.023-0.132,0.037-0.209,0.085    c-0.111,0.068-0.24,0.188-0.37,0.309c-0.086,0.08-0.165,0.142-0.258,0.245c-0.155,0.172-0.328,0.409-0.501,0.647    c-0.088,0.121-0.168,0.212-0.26,0.35c-0.274,0.411-0.565,0.889-0.871,1.455c-1.23,2.249-2.582,4.897-3.892,7.789    c-0.06,0.133-0.122,0.259-0.182,0.393c-0.276,0.643-0.544,1.336-0.815,2c-0.328,0.803-0.658,1.591-0.984,2.415    c-0.34,0.86-0.691,1.726-1.035,2.598c-0.317,0.804-0.631,1.605-0.957,2.409c-0.04,0.099-0.077,0.197-0.118,0.296    c-0.311,0.77-0.623,1.538-0.934,2.305c-0.328,0.809-0.656,1.615-0.981,2.414c-0.356,0.876-0.71,1.745-1.059,2.603    c-0.332,0.816-0.659,1.622-0.981,2.414c-0.36,0.887-0.709,1.752-1.051,2.601c-0.333,0.827-0.653,1.629-0.964,2.411    c-0.359,0.902-0.698,1.765-1.022,2.595c-0.11,0.283-0.227,0.578-0.332,0.852c-0.199,0.507-0.404,1.029-0.61,1.555    c-0.339,0.863-0.681,1.738-1.016,2.594c-0.326,0.833-0.644,1.646-0.941,2.406c-0.381,0.975-0.726,1.858-1.013,2.593    c-0.494,1.266-0.812,2.082-0.812,2.082s0.423-0.838,1.078-2.137c0.38-0.754,0.841-1.669,1.34-2.661    c0.395-0.785,0.814-1.617,1.242-2.468c0.445-0.885,0.896-1.784,1.336-2.66c0.143-0.285,0.285-0.568,0.424-0.846    c0.264-0.519,0.539-1.066,0.818-1.622c0.425-0.848,0.867-1.736,1.321-2.657c0.393-0.797,0.798-1.62,1.209-2.462    c0.423-0.865,0.855-1.75,1.294-2.651c0.394-0.809,0.793-1.629,1.196-2.459c0.426-0.877,0.856-1.76,1.289-2.65    c0.398-0.818,0.798-1.637,1.199-2.459c0.105-0.216,0.21-0.431,0.316-0.647c0.328-0.676,0.664-1.338,0.998-2.009    c1.25-2.514,2.513-5,3.621-7.394c1.355-3.054,2.474-5.969,3.365-8.498c0.211-0.592,0.367-1.113,0.489-1.584    c0.012-0.047,0.028-0.099,0.039-0.145c0.107-0.435,0.171-0.806,0.206-1.128c0.005-0.049,0.013-0.102,0.016-0.149    C83,24.284,82.989,24.044,82.95,23.856z M80.366,30.166c-0.121,0.271-0.252,0.52-0.385,0.745    c-0.046,0.077-0.091,0.133-0.137,0.203c-0.088,0.134-0.175,0.267-0.26,0.373c-0.052,0.064-0.098,0.102-0.149,0.155    c-0.076,0.079-0.15,0.156-0.219,0.204c-0.048,0.034-0.086,0.041-0.129,0.058c-0.043,0.018-0.094,0.059-0.131,0.059    c-0.029,0-0.056-0.005-0.081-0.017c-0.321-0.143-0.174-1.173,0.328-2.299c0.121-0.272,0.252-0.52,0.385-0.745    c0.045-0.076,0.089-0.131,0.135-0.201c0.089-0.136,0.177-0.27,0.263-0.377c0.051-0.063,0.097-0.101,0.146-0.152    c0.076-0.08,0.151-0.157,0.22-0.206c0.048-0.034,0.086-0.041,0.129-0.058c0.043-0.018,0.094-0.059,0.131-0.059    c0.029,0,0.056,0.005,0.081,0.017C81.015,28.01,80.868,29.04,80.366,30.166z"></path></g></g></svg>